<?xml version="1.0" encoding="UTF-8" standalone="no"?>
<!DOCTYPE svg PUBLIC "-//W3C//DTD SVG 1.1//EN" "http://www.w3.org/Graphics/SVG/1.1/DTD/svg11.dtd">
<svg width="100%" height="100%" viewBox="0 0 512 512" version="1.1" xmlns="http://www.w3.org/2000/svg" xmlns:xlink="http://www.w3.org/1999/xlink" xml:space="preserve" xmlns:serif="http://www.serif.com/" style="fill-rule:evenodd;clip-rule:evenodd;stroke-linejoin:round;stroke-miterlimit:2;">
    <circle cx="256" cy="256" r="256" style="fill:rgb(0,18,54);"/>
    <g transform="matrix(0.088496,0,0,0.097632,256,256)">
        <g transform="matrix(1,0,0,1,-1666.666667,-1666.666667)">
            <g id="SVGRepo_iconCarrier" transform="matrix(6.510417,0,0,6.510417,0,0)">
                <g>
                    <path d="M410.34,153.043C409.062,151.75 407.628,150.566 406.052,149.516L404.437,149.179C403.591,148.811 402.917,148.207 402.477,147.477C399.953,146.286 397.311,145.518 394.623,145.134C392.302,144.812 390.672,142.657 391.009,140.32C391.322,137.984 393.493,136.354 395.814,136.675C398.472,137.067 401.136,137.742 403.692,138.745C404.107,136.879 404.342,134.974 404.342,133.054C404.334,128.852 403.347,124.611 401.246,120.621C398.847,116.059 395.328,112.5 391.212,110.071C387.606,107.939 383.53,106.669 379.344,106.371C379.039,110.188 378.13,113.99 376.546,117.674C375.605,119.837 373.105,120.833 370.934,119.9C368.77,118.975 367.767,116.467 368.7,114.303C370.22,110.753 370.934,107.1 370.95,103.478L370.895,101.934C370.605,96.917 368.943,92.073 366.113,87.942C363.283,83.818 359.317,80.44 354.379,78.3C350.836,76.787 347.167,76.074 343.553,76.074C336.631,76.074 329.929,78.74 324.866,83.442C325.814,86.664 326.355,90.058 326.355,93.586C326.355,95.938 324.427,97.85 322.075,97.85C319.723,97.85 317.803,95.938 317.803,93.586C317.803,90.129 317.168,86.852 316.008,83.803L316.016,83.803C314.048,78.669 310.568,74.248 306.108,71.128C301.663,68.009 296.278,66.182 290.415,66.182C285.328,66.182 280.585,67.57 276.509,69.968C273.248,71.896 270.434,74.499 268.224,77.556C272.543,83.474 275.098,90.788 275.098,98.674C275.098,101.025 273.178,102.93 270.818,102.93C268.466,102.93 266.546,101.025 266.546,98.674C266.546,91.745 263.998,85.442 259.758,80.621C254.726,74.875 247.381,71.278 239.15,71.278C233.436,71.278 228.176,73.01 223.778,75.989C219.396,78.968 215.908,83.185 213.846,88.139C212.514,91.376 211.753,94.943 211.753,98.674C211.753,101.025 209.848,102.93 207.489,102.93C205.129,102.93 203.225,101.025 203.225,98.674C203.225,95.209 203.727,91.87 204.636,88.687C201.422,87.386 197.942,86.665 194.368,86.665C192.338,86.665 190.3,86.9 188.23,87.363C182.147,88.766 177.06,92.043 173.336,96.479C170.655,99.678 168.742,103.479 167.747,107.563C176.566,107.719 185.376,111.129 192.181,117.792C193.859,119.446 193.89,122.143 192.244,123.82C190.59,125.513 187.893,125.529 186.208,123.89C180.862,118.678 173.972,116.067 167.042,116.059C165.804,116.059 164.565,116.145 163.326,116.302L163.303,116.302C157.495,117.109 151.898,119.758 147.453,124.29C142.232,129.62 139.645,136.503 139.638,143.448C139.638,147.407 140.5,151.396 142.224,155.065C143.564,157.957 145.446,160.654 147.876,163.021L147.876,163.028C150.62,165.725 153.787,167.716 157.166,169.017C159.352,169.872 160.458,172.341 159.596,174.535C158.742,176.746 156.28,177.844 154.078,176.981C149.665,175.272 145.495,172.655 141.888,169.119C140.313,167.567 138.909,165.913 137.664,164.158C134.442,168.775 132.694,174.3 132.694,179.929C132.694,184.288 133.737,188.685 135.939,192.816C138.416,197.441 141.999,201.047 146.216,203.508C149.547,205.46 153.271,206.691 157.112,207.122L157.104,206.863C157.104,204.605 157.316,202.395 157.7,200.247C158.139,197.927 160.373,196.413 162.678,196.829C164.998,197.26 166.527,199.486 166.111,201.806C165.805,203.444 165.641,205.145 165.641,206.862L165.711,208.846L165.938,210.845L165.938,210.868L165.946,210.907C167.906,224.296 179.476,234.305 193.021,234.305L194.989,234.227L194.997,234.227C201.001,233.796 206.394,231.475 210.674,227.862C213.676,225.33 216.137,222.156 217.823,218.58C218.818,216.44 221.381,215.532 223.506,216.542C225.638,217.546 226.548,220.085 225.544,222.218C223.718,226.067 221.225,229.539 218.231,232.494C219.908,237.652 223.059,242.081 227.175,245.373C231.879,249.144 237.812,251.37 244.224,251.37L246.2,251.292L246.208,251.292C250.268,251.002 254.023,249.834 257.355,248.015C256.837,245.562 256.54,243.054 256.54,240.514C256.54,235.277 257.708,229.939 260.122,224.922C261.149,222.798 263.696,221.912 265.813,222.939C267.937,223.95 268.839,226.506 267.812,228.63C265.954,232.479 265.084,236.524 265.084,240.514C265.084,243.304 265.515,246.087 266.346,248.728L266.354,248.728C268.541,255.697 273.48,261.788 280.589,265.205C284.43,267.063 288.475,267.933 292.457,267.933C298.783,267.933 304.968,265.722 309.875,261.717L309.891,261.709C312.87,259.255 315.363,256.151 317.157,252.443L317.165,252.427C318.835,248.963 319.713,245.334 319.861,241.712C319.971,239.36 321.954,237.526 324.321,237.636C326.673,237.738 328.491,239.728 328.389,242.08C328.185,246.83 327.033,251.627 324.846,256.15L324.846,256.142C323.09,259.803 320.778,263.025 318.066,265.776C323.098,273.003 331.47,277.558 340.524,277.55C342.201,277.55 343.91,277.394 345.627,277.064C352.219,275.826 357.777,272.337 361.728,267.54C365.671,262.734 367.968,256.628 367.968,250.184L367.96,249.605L367.96,249.573C367.929,248.123 367.78,246.603 367.498,245.073C366.816,241.444 365.428,238.151 363.524,235.243C360.765,232.813 357.7,229.639 354.808,226.111C351.727,222.349 348.89,218.233 346.985,214.087C345.731,211.312 344.837,208.506 344.821,205.551C344.821,204.242 345.001,202.886 345.495,201.585C345.973,200.26 346.757,199.006 347.807,197.971C349.469,196.317 352.165,196.317 353.835,197.971C355.497,199.648 355.497,202.36 353.835,204.015L353.513,204.525L353.349,205.552C353.333,206.626 353.78,208.445 354.744,210.537C355.7,212.623 357.119,214.966 358.789,217.278C362.097,221.911 366.385,226.458 369.614,229.232L370.053,229.609L370.375,230.087C373.017,234.022 374.953,238.553 375.885,243.499L375.885,243.507L376.191,245.623L377.469,245.678C382.878,245.67 388.325,244.071 393.115,240.708C396.925,238.027 399.825,234.586 401.785,230.721C403.752,226.849 404.779,222.569 404.779,218.258C404.779,214.221 403.869,210.168 402.051,206.398C400.365,206.939 398.656,207.37 396.924,207.668C394.604,208.083 392.401,206.507 391.986,204.188C391.593,201.86 393.162,199.665 395.482,199.257C403.038,197.956 409.96,193.551 414.24,186.48C416.952,182.036 418.23,177.144 418.23,172.308C418.23,165.182 415.478,158.214 410.352,153.048L410.34,153.043ZM214.788,120.481C218.864,115.66 224.273,112.234 230.089,109.992C235.929,107.75 242.184,106.676 248.189,106.676C254.029,106.684 259.641,107.672 264.407,109.883C266.539,110.854 267.472,113.402 266.484,115.542C265.504,117.675 262.972,118.615 260.817,117.628C257.525,116.084 253.017,115.198 248.189,115.198C243.219,115.198 237.921,116.114 233.162,117.965C228.404,119.791 224.226,122.519 221.286,125.984C219.781,127.787 217.077,128.022 215.274,126.486C213.479,124.965 213.252,122.276 214.788,120.481ZM311.925,221.396C306.963,221.396 302.463,220.832 298.356,219.884C298.466,221.059 298.544,222.368 298.544,223.756C298.544,226.539 298.238,229.72 297.368,233.06C296.49,236.391 295.009,239.895 292.673,243.258C291.333,245.202 288.675,245.68 286.739,244.339C284.795,242.998 284.325,240.349 285.649,238.397C287.373,235.912 288.447,233.372 289.106,230.872C289.765,228.372 290.008,225.941 290.008,223.755C290.016,220.737 289.553,218.252 289.224,216.833C287.139,215.892 285.218,214.834 283.424,213.65C276.275,209.025 271.494,202.919 268.491,197.11C266.477,193.214 265.253,189.452 264.595,186.183C264.219,184.317 264.031,182.625 264.031,181.087C264.031,178.72 265.944,176.807 268.303,176.807C270.662,176.807 272.575,178.72 272.575,181.087C272.567,182.325 272.834,184.403 273.508,186.763C274.182,189.13 275.256,191.819 276.808,194.523C279.92,199.963 284.866,205.411 292.501,208.947C297.604,211.314 303.953,212.85 311.925,212.85C314.284,212.85 316.197,214.763 316.197,217.122C316.197,219.484 314.285,221.396 311.925,221.396ZM341.979,190.229C341.101,192.409 338.616,193.475 336.421,192.604C334.234,191.726 333.184,189.257 334.046,187.07L334.046,187.062L334.07,186.999L334.196,186.623L334.635,185.087C334.957,183.739 335.286,181.834 335.286,179.741L335.278,179.443C329.415,181.434 323.975,182.327 318.966,182.327C311.394,182.343 304.841,180.266 299.51,177.115C294.172,173.965 290.018,169.794 286.913,165.553C283.386,160.748 278.761,156.437 273.462,153.388C268.148,150.33 262.206,148.512 255.896,148.496C250.37,148.512 244.491,149.891 238.353,153.262C232.529,156.46 228.782,160.716 226.36,165.388C223.954,170.068 222.935,175.178 222.942,179.835C222.926,184.146 223.836,188.049 225.019,190.511C226.03,192.643 225.113,195.183 222.989,196.194C220.865,197.206 218.317,196.288 217.306,194.164C215.448,190.228 214.414,185.274 214.398,179.835C214.406,174.426 215.48,168.515 218.122,162.864C212.824,164.064 207.901,164.597 203.417,164.597C200.995,164.597 198.713,164.44 196.542,164.158L195.75,165.757L195.742,165.772L195.679,165.836L195.452,166.126L194.542,167.364C193.766,168.478 192.692,170.1 191.524,172.169C189.196,176.269 186.531,182.054 185.237,188.551C184.775,190.864 182.533,192.377 180.22,191.906C177.908,191.444 176.402,189.202 176.881,186.874C178.417,179.168 181.452,172.615 184.093,167.951C185.472,165.537 186.735,163.625 187.659,162.323C184.179,161.281 181.169,160.003 178.708,158.701C173.088,155.714 170.163,152.72 169.913,152.477C168.282,150.776 168.329,148.079 170.022,146.441C171.723,144.811 174.412,144.858 176.05,146.535L176.098,146.582L176.348,146.825L177.571,147.851C178.683,148.729 180.401,149.937 182.697,151.159C187.306,153.589 194.189,156.051 203.415,156.067C209.897,156.067 217.54,154.829 226.421,151.411C228.671,149.318 231.265,147.406 234.244,145.775C241.55,141.77 248.91,139.967 255.894,139.967C263.874,139.967 271.297,142.288 277.725,145.987C284.153,149.703 289.601,154.79 293.794,160.512C296.342,163.968 299.689,167.316 303.836,169.753C308.006,172.199 312.936,173.791 318.964,173.798C323.095,173.798 327.751,173.03 333.019,171.18C331.734,169.118 329.821,167.127 326.67,165.324C324.616,164.156 323.887,161.554 325.047,159.508C326.215,157.446 328.81,156.74 330.863,157.885C335.911,160.731 339.29,164.501 341.249,168.444C343.232,172.371 343.82,176.353 343.82,179.74C343.797,185.652 342.096,189.924 341.979,190.229ZM340.38,137.938C330.409,137.938 321.685,135.249 314.63,131.181C313.635,132.561 312.302,134.293 310.585,136.174C306.721,140.415 301.045,145.393 293.45,148.12C291.216,148.904 288.786,147.76 287.994,145.534C287.202,143.307 288.37,140.87 290.573,140.086C296.178,138.087 300.865,134.16 304.111,130.609C305.616,128.986 306.784,127.45 307.631,126.274C303.421,122.716 300.098,118.663 297.817,114.493C295.654,110.495 294.399,106.372 294.384,102.366C294.384,100.015 296.297,98.102 298.656,98.102C301.008,98.102 302.92,100.015 302.92,102.366C302.904,104.522 303.657,107.399 305.318,110.417C306.956,113.442 309.449,116.593 312.71,119.416C319.232,125.068 328.646,129.394 340.381,129.394C342.74,129.394 344.645,131.315 344.645,133.674C344.644,136.025 342.739,137.938 340.38,137.938ZM374.023,198.037C372.526,199.84 369.829,200.106 368.011,198.593C366.193,197.096 365.942,194.4 367.431,192.589C372.087,186.937 373.804,181.246 373.819,175.799C373.835,170.837 372.314,166.047 369.931,162.011C367.579,157.981 364.327,154.752 361.199,152.957C359.098,151.75 357.123,151.209 355.555,151.209C353.195,151.209 351.291,149.305 351.291,146.945C351.291,144.586 353.196,142.673 355.555,142.673C358.149,142.673 360.689,143.308 363.104,144.374C365.51,145.425 367.784,146.922 369.9,148.749C374.125,152.401 377.715,157.371 379.973,163.196C381.462,167.083 382.371,171.348 382.371,175.8C382.379,183.12 379.879,190.958 374.023,198.037Z" style="fill:white;fill-rule:nonzero;"/>
                    <path d="M172.459,411.86L172.75,412.119C172.742,412.111 172.742,412.111 172.734,412.103L172.459,411.86Z" style="fill:white;fill-rule:nonzero;"/>
                    <path d="M428.699,66.574C396.943,29.442 349.183,4.155 287.986,0.462C283.008,0.156 278.054,0 273.147,0C221.678,0 174.332,16.712 139.623,47.393C104.89,77.995 83.263,122.801 83.341,176.465C83.341,177.68 83.349,178.895 83.372,180.118L83.318,186.592L39.139,264.61C36.764,268.819 35.564,273.515 35.564,278.211C35.564,282.129 36.396,286.065 38.08,289.733C41.647,297.517 48.662,303.114 56.971,305.042L56.955,305.112L77.273,310.709L85.3,388.132L85.363,388.124C85.928,399.404 90.96,409.994 99.505,417.425C107.101,424.041 116.797,427.631 126.768,427.631C127.778,427.631 128.774,427.537 129.778,427.467L152.8,429.293L153.953,429.168L154.321,429.152C155.206,429.152 156.03,429.466 156.665,430.038L156.703,430.078C157.433,430.736 157.864,431.7 157.864,432.688L157.864,512L372.824,512L372.824,454.332C372.8,449.095 373.843,438.741 375.897,428.754C376.916,423.746 378.177,418.752 379.605,414.434C381.016,410.123 382.647,406.454 384.01,404.314C398.308,381.268 418.524,362.362 437.038,335.624C455.53,308.91 471.293,274.255 475.612,221.673C476.161,215.081 476.436,208.488 476.436,201.928C476.436,152.079 460.508,103.674 428.699,66.574ZM451.611,219.664C447.433,268.539 433.762,297.784 417.206,321.967C400.675,346.126 380.232,365.119 363.59,391.544C360.69,396.216 358.565,401.39 356.739,406.892C354.027,415.131 352.091,424.114 350.766,432.478C349.449,440.865 348.752,448.469 348.744,454.332L348.744,487.92L181.944,487.92L181.944,432.689C181.944,424.842 178.605,417.372 172.756,412.129C167.653,407.543 161.069,405.066 154.32,405.066C153.826,405.066 153.348,405.12 152.862,405.152L129.864,403.318L128.735,403.443L126.768,403.553C122.582,403.553 118.506,402.04 115.315,399.265C111.631,396.059 109.451,391.45 109.31,386.551L109.303,386.097L99.536,291.876L62.929,281.78L62.49,281.694C61.377,281.474 60.445,280.737 59.966,279.702L59.644,278.213L60.099,276.473L107.35,193.03L107.452,179.994L107.452,179.821C107.429,178.693 107.421,177.579 107.421,176.467C107.5,129.216 125.865,91.809 155.574,65.432C185.314,39.117 226.844,24.082 273.147,24.082C277.56,24.082 282.013,24.223 286.497,24.498L287.241,12.481L286.504,24.498C341.947,27.986 382.756,50.107 410.418,82.253C438.034,114.423 452.356,157.151 452.356,201.927C452.356,207.812 452.113,213.73 451.611,219.664Z" style="fill:white;fill-rule:nonzero;"/>
                </g>
            </g>
        </g>
    </g>
</svg>
